<svg xmlns="http://www.w3.org/2000/svg" width="1127" height="236.688" viewBox="0 0 1127 236.688">
    <g data-name="Logo 1">
        <g data-name="Group 5">
            <path data-name="Path 30" d="M217.227 154.162c20.288-6.763 31.992-25.229 31.992-50.719 0-31.212-7.8-62.943-64.764-62.943H145.7v236.428h41.876c45.777 0 66.325-20.548 66.325-66.325-.001-30.691-12.745-50.203-36.674-56.441zm-44.737 11.965h15.086c27.83 0 39.275 12.745 39.275 43.7 0 31.212-11.444 43.956-39.275 43.956H172.49zm13.265-22.627H172.49V63.909h13.265c18.987 0 36.674 4.942 36.674 39.795-.261 24.709-6.243 39.796-36.674 39.796z" transform="translate(-145.7 -40.5)" style="fill:#fff"/>
            <path data-name="Path 31" d="M298.577 219.187c-1.04-23.669-3.9-45.517-26.79-53.32 22.629-6.242 34.593-26.01 34.593-57.741 0-45.517-21.068-67.625-64.764-67.625H198.7v236.427h27.57v-99.617h14.305c26.01 0 29.391 13.785 30.951 43.176 1.561 31.472 2.6 42.4 7.023 55.661l.26.78h29.131l-1.04-1.821c-6.242-13.265-7.282-27.307-8.323-55.92zM226.27 63.909h13.265c27.57 0 38.754 13 38.754 44.737 0 33.032-10.4 45.517-38.754 45.517H226.27z" transform="translate(-60.848 -40.5)" style="fill:#fff"/>
            <path data-name="Path 32" d="m295.158 40.5-47.6 234.868-.26 1.561h26.53l13.787-72.829h45.777l14.045 72.827h27.83L327.15 40.5zm33.292 140.452h-36.673L310.244 85.5z" transform="translate(16.959 -40.5)" style="fill:#fff"/>
            <path data-name="Rectangle 4" transform="translate(412.774)" style="fill:#fff" d="M0 0h27.83v236.428H0z"/>
            <path data-name="Path 33" d="M374 40.5h-45v236.428h45c44.216 0 61.383-27.31 61.383-97.016v-42.136C435.64 67.81 418.213 40.5 374 40.5zm-17.169 23.149h15.346c27.05 0 35.893 17.687 35.893 73.347v43.7c0 55.4-8.583 73.347-35.893 73.347h-15.346z" transform="translate(147.758 -40.5)" style="fill:#fff"/>
            <path data-name="Path 34" d="M497.766 210.083 474.1 40.5h-23.152l-23.669 169.583L402.83 40.5H376.3l36.674 236.688h25.49l23.669-166.462 23.409 166.462h25.228l36.414-235.127.26-1.561h-25.229z" transform="translate(223.484 -40.5)" style="fill:#fff"/>
            <path data-name="Path 35" d="M479.01 166.907h46.557v-24.189H479.01V64.429h60.862V40.5H451.7v236.688h90.774v-23.929H479.01z" transform="translate(344.197 -40.5)" style="fill:#fff"/>
            <path data-name="Path 36" d="M526.23 40.5H498.4v236.688h89.473v-23.929H526.23z" transform="translate(418.962 -40.5)" style="fill:#fff"/>
            <path data-name="Path 37" d="M572.431 253.259V40.5H544.6v236.688h89.473v-23.929z" transform="translate(492.927 -40.5)" style="fill:#fff"/>
        </g>
    </g>
</svg>
